<?xml version="1.0" encoding="UTF-8"?>
<svg id="Layer_2" data-name="Layer 2" xmlns="http://www.w3.org/2000/svg" viewBox="0 0 284.47 67.76">
  <g id="Layer_1-2" data-name="Layer 1">
    <g>
      <path d="M66.98,24.96l-10.74-7.02c-1.61-1.05-3.72-.92-5.18.34l-11.35,9.72c-2.03,1.74-2.01,4.89.03,6.6l11.64,9.76c1.83,1.54,4.56,1.3,6.1-.54l10.45-12.46c1.67-1.99,1.22-4.99-.95-6.4Z"/>
      <path d="M32.88,13.45L19.3,1.12c-1.53-1.39-3.82-1.5-5.48-.28L1.76,9.74c-1.99,1.47-2.35,4.31-.78,6.23l12.11,14.78c1.35,1.65,1.3,4.03-.11,5.62l-8.54,9.6c-1.35,1.52-1.46,3.77-.27,5.42l9.88,13.65c1.54,2.13,4.6,2.4,6.5.59l12.42-11.87c.85-.82,1.34-1.95,1.34-3.13V16.66c0-1.22-.52-2.39-1.42-3.21Z"/>
      <path d="M115.46,37.21c-.09-.21-.1-.44-.03-.66L126.26,1.26c.19-.62-.28-1.26-.93-1.26h-2.6c-.43,0-.8.28-.93.69l-10.22,33.62c-.12.41-.5.69-.93.69h-6.8c-.54,0-.97-.43-.97-.97V.97c0-.54-.43-.97-.97-.97h-2.52c-.54,0-.97.43-.97.97v64.88c0,.54.43.97.97.97h2.52c.54,0,.97-.43.97-.97v-25.77c0-.54.43-.97.97-.97h6.88c.39,0,.74.23.89.59l11.25,26.52c.15.36.5.59.89.59h2.62c.69,0,1.16-.71.9-1.35l-11.83-28.27Z"/>
      <path d="M174.74,0h-18.22c-.21,0-.38.08-.54.19-.16-.11-.34-.19-.54-.19h-2.52c-.54,0-.97.43-.97.97v64.88c0,.54.43.97.97.97h2.52c.21,0,.38-.08.54-.19.16.11.34.19.54.19h18.22c.54,0,.97-.43.97-.97v-2.18c0-.54-.43-.97-.97-.97h-18.22s-.07.02-.11.02v-23.81s.07.02.11.02h14.79c.54,0,.97-.43.97-.97v-2.09c0-.54-.43-.97-.97-.97h-14.79s-.07.02-.11.02V4.09s.07.02.11.02h18.22c.54,0,.97-.43.97-.97V.97c0-.54-.43-.97-.97-.97Z"/>
      <path d="M225.37,39.11c3.2-3.77,4.8-9.61,4.8-17.5,0-5.43-.66-9.72-1.97-12.87-1.31-3.14-3.3-5.39-5.96-6.73s-6.05-2.02-10.16-2.02h-5.38c-.15,0-.29.04-.41.1-.13-.06-.26-.1-.41-.1h-2.52c-.54,0-.97.43-.97.97v64.88c0,.54.43.97.97.97h2.52c.54,0,.97-.43.97-.97v-21.07h4.63c.8,0,1.57-.04,2.32-.1l11.04,21.62c.17.32.5.53.86.53h2.69c.73,0,1.2-.77.86-1.42l-11.23-21.54c2.96-.9,5.42-2.48,7.34-4.75ZM219.63,38.69c-2.12,1.31-4.83,1.97-8.15,1.97h-4.63V4.12h5.23c3.37,0,6.06.51,8.06,1.54,2,1.03,3.43,2.82,4.29,5.36.86,2.55,1.29,6.08,1.29,10.59s-.49,8.02-1.46,10.85c-.97,2.83-2.52,4.9-4.63,6.22Z"/>
      <path d="M283.5,0h-2.52c-.54,0-.97.43-.97.97v48.44c0,3.55-.27,6.36-.82,8.45-.54,2.09-1.49,3.57-2.83,4.46-1.34.89-3.25,1.33-5.7,1.33-3.66,0-6.15-1.04-7.46-3.13-1.31-2.09-1.97-5.79-1.97-11.11V.97c0-.54-.43-.97-.97-.97h-2.52c-.54,0-.97.43-.97.97v48.44c0,6.63,1.07,11.35,3.22,14.15,2.14,2.8,5.7,4.2,10.68,4.2s8.38-1.4,10.55-4.2c2.17-2.8,3.26-7.52,3.26-14.15V.97c0-.54-.43-.97-.97-.97Z"/>
    </g>
  </g>
</svg>